<svg id="Layer_1" data-name="Layer 1" xmlns="http://www.w3.org/2000/svg" xmlns:xlink="http://www.w3.org/1999/xlink" viewBox="0 0 382.969 59.894">
  <defs>
    <style>
      .cls-1 {
        fill: none;
      }

      .cls-2 {
        fill: #231f20;
      }

      .cls-3 {
        clip-path: url(#clip-path);
      }

      .cls-4 {
        fill: url(#linear-gradient);
      }

      .cls-5 {
        fill: url(#linear-gradient-2);
      }

      .cls-6 {
        fill: url(#linear-gradient-3);
      }

      .cls-7 {
        fill: url(#linear-gradient-4);
      }

      .cls-8 {
        fill: #f9f9f9;
      }

      .cls-9 {
        fill: #fff;
      }
    </style>
    <clipPath id="clip-path" transform="translate(-288.516 -250.053)">
      <path class="cls-1" d="M327.418,276.487l-8.094-4.673L303.711,262.8c-.867-.5-1.73-.2-1.73.849v36.728c0,.784.617,1.122,1.37.688l15.973-9.223,8.094-4.673,7.78-4.492c.913-.527.825-1.251.055-1.665S327.418,276.487,327.418,276.487Z"/>
    </clipPath>
    <linearGradient id="linear-gradient" x1="23.49" y1="11.892" x2="23.49" y2="51.657" gradientUnits="userSpaceOnUse">
      <stop offset="0" stop-color="#257db0"/>
      <stop offset="0.208" stop-color="#3c90b3"/>
      <stop offset="0.742" stop-color="#73bdb9"/>
      <stop offset="1" stop-color="#89cebc"/>
    </linearGradient>
    <linearGradient id="linear-gradient-2" x1="13.465" y1="21.761" x2="38.902" y2="21.761" gradientUnits="userSpaceOnUse">
      <stop offset="0" stop-color="#51bfac"/>
      <stop offset="1" stop-color="#dee899"/>
    </linearGradient>
    <linearGradient id="linear-gradient-3" x1="26.183" y1="31.775" x2="26.183" y2="51.801" gradientUnits="userSpaceOnUse">
      <stop offset="0" stop-color="#eb403d"/>
      <stop offset="0.194" stop-color="#d64252"/>
      <stop offset="0.737" stop-color="#9f4887"/>
      <stop offset="1" stop-color="#894a9c"/>
    </linearGradient>
    <linearGradient id="linear-gradient-4" x1="40.834" y1="26.434" x2="40.834" y2="37.114" gradientUnits="userSpaceOnUse">
      <stop offset="0" stop-color="#f48779"/>
      <stop offset="0.612" stop-color="#fab076"/>
      <stop offset="1" stop-color="#fdc674"/>
    </linearGradient>
  </defs>
  <title>google play</title>
  <g>
    <path class="cls-2" d="M7.936.587H171.574a7.935,7.935,0,0,1,7.935,7.935V51.371a7.935,7.935,0,0,1-7.935,7.935H7.935A7.935,7.935,0,0,1,0,51.371V8.523A7.936,7.936,0,0,1,7.936.587Z"/>
    <g id="PLAY">
      <g class="cls-3">
        <polygon class="cls-4" points="13.465 11.892 13.465 31.774 13.465 51.657 33.516 31.775 13.465 11.892"/>
        <polygon class="cls-5" points="38.902 26.434 30.808 21.761 13.465 11.747 13.465 11.892 33.516 31.775 38.902 26.434"/>
        <polygon class="cls-6" points="13.465 51.657 13.465 51.801 30.808 41.787 38.902 37.114 33.516 31.775 13.465 51.657"/>
        <polygon class="cls-7" points="38.902 26.434 33.516 31.775 38.902 37.114 48.152 31.774 38.902 26.434"/>
      </g>
    </g>
    <g>
      <path class="cls-8" d="M428.218,289.6a5,5,0,0,1-2.063-.416,3.886,3.886,0,0,1-1.567-1.282h-.126a15.529,15.529,0,0,1,.126,1.92v4.759h-1.751V277.825h1.424l.242,1.583h.084a4.072,4.072,0,0,1,1.573-1.372,4.778,4.778,0,0,1,2.057-.422,4.274,4.274,0,0,1,3.551,1.572,8.374,8.374,0,0,1-.02,8.837A4.284,4.284,0,0,1,428.218,289.6Zm-.253-10.5a3.1,3.1,0,0,0-2.564.981,5.053,5.053,0,0,0-.813,3.124v.39a5.786,5.786,0,0,0,.813,3.488,3.09,3.09,0,0,0,2.606,1.049,2.711,2.711,0,0,0,2.349-1.213,5.757,5.757,0,0,0,.849-3.345,5.542,5.542,0,0,0-.849-3.318A2.8,2.8,0,0,0,427.965,279.1Z" transform="translate(-288.516 -250.053)"/>
      <path class="cls-8" d="M437.075,289.389h-1.751V272.971h1.751Z" transform="translate(-288.516 -250.053)"/>
      <path class="cls-8" d="M447.145,289.389l-.349-1.646h-.084a4.852,4.852,0,0,1-1.725,1.472,5.246,5.246,0,0,1-2.147.385,3.863,3.863,0,0,1-2.7-.886,3.231,3.231,0,0,1-.976-2.522q0-3.5,5.6-3.672l1.963-.063v-.717a2.928,2.928,0,0,0-.586-2.01,2.406,2.406,0,0,0-1.873-.649,7.628,7.628,0,0,0-3.271.886l-.538-1.34a8.234,8.234,0,0,1,1.873-.728,8.111,8.111,0,0,1,2.042-.264,4.406,4.406,0,0,1,3.065.918,3.834,3.834,0,0,1,1,2.944v7.892Zm-3.957-1.234a3.557,3.557,0,0,0,2.569-.9,3.32,3.32,0,0,0,.934-2.512V283.7l-1.752.073a6.371,6.371,0,0,0-3.012.65,1.957,1.957,0,0,0-.923,1.788,1.8,1.8,0,0,0,.575,1.445A2.384,2.384,0,0,0,443.188,288.155Z" transform="translate(-288.516 -250.053)"/>
      <path class="cls-8" d="M449.459,277.825h1.877l2.532,6.595a25.2,25.2,0,0,1,1.035,3.261h.084q.137-.539.575-1.842t2.865-8.013h1.879l-4.97,13.168a6.569,6.569,0,0,1-1.726,2.771,3.669,3.669,0,0,1-2.421.817,7.069,7.069,0,0,1-1.583-.179V293a6.114,6.114,0,0,0,1.3.127,2.675,2.675,0,0,0,2.575-2.026l.643-1.646Z" transform="translate(-288.516 -250.053)"/>
    </g>
    <g>
      <path class="cls-8" d="M395.772,278.9a3.94,3.94,0,0,1-.315,6.7,1.7,1.7,0,0,0-.677,1.187,1.327,1.327,0,0,0,.63,1.04l.871.676c1.064.9,2.031,1.718,2.031,3.388,0,2.273-2.2,4.571-6.361,4.571-3.508,0-5.2-1.668-5.2-3.46a3.481,3.481,0,0,1,1.862-2.951,10.426,10.426,0,0,1,4.62-1.113,2.532,2.532,0,0,1-.726-1.643,2.183,2.183,0,0,1,.242-.945c-.267.025-.533.049-.775.049a3.824,3.824,0,0,1-4.014-3.8,4.351,4.351,0,0,1,1.547-3.241,6.6,6.6,0,0,1,4.331-1.331h4.982l-1.548.871Zm-1.718,10.74a3.739,3.739,0,0,0-.556-.025,9.667,9.667,0,0,0-2.54.389,2.716,2.716,0,0,0-2.08,2.491c0,1.716,1.67,2.952,4.258,2.952,2.321,0,3.556-1.115,3.556-2.613C396.692,291.6,395.893,290.946,394.054,289.64Zm.7-4.6a2.446,2.446,0,0,0,.6-1.766c0-1.741-1.04-4.45-3.047-4.45a2.259,2.259,0,0,0-1.693.8,2.794,2.794,0,0,0-.533,1.79c0,1.62.944,4.305,3.025,4.305A2.477,2.477,0,0,0,394.756,285.044Z" transform="translate(-288.516 -250.053)"/>
      <path class="cls-8" d="M380.544,289.253a5.7,5.7,0,0,1-5.892-5.7,5.984,5.984,0,0,1,6.256-5.867,5.646,5.646,0,0,1,5.77,5.7A5.9,5.9,0,0,1,380.544,289.253Zm3.018-1.956a4.368,4.368,0,0,0,.726-2.682c0-2.126-1.014-6.182-4.009-6.182a3.364,3.364,0,0,0-2.173.823,3.654,3.654,0,0,0-1.112,2.947c0,2.389,1.183,6.324,4.106,6.324A3.085,3.085,0,0,0,383.563,287.3Z" transform="translate(-288.516 -250.053)"/>
      <path class="cls-8" d="M367.455,289.253a5.7,5.7,0,0,1-5.893-5.7,5.984,5.984,0,0,1,6.255-5.867,5.646,5.646,0,0,1,5.771,5.7A5.9,5.9,0,0,1,367.455,289.253Zm3.019-1.956a4.375,4.375,0,0,0,.725-2.682c0-2.126-1.015-6.182-4.01-6.182a3.364,3.364,0,0,0-2.173.823,3.653,3.653,0,0,0-1.111,2.947c0,2.389,1.183,6.324,4.106,6.324A3.087,3.087,0,0,0,370.474,287.3Z" transform="translate(-288.516 -250.053)"/>
      <path class="cls-8" d="M359.718,288.874l-3.472.8a25.731,25.731,0,0,1-4.006.412c-6.7,0-9.25-4.929-9.25-8.789,0-4.71,3.617-9.079,9.809-9.079a13.985,13.985,0,0,1,3.714.51,9.472,9.472,0,0,1,3.205,1.505l-2.016,1.918-.849.193.607-.971a6.939,6.939,0,0,0-5.2-2.281c-3.836,0-6.726,2.915-6.726,7.163a8.586,8.586,0,0,0,8.594,8.861,7.23,7.23,0,0,0,3.084-.607V284.6l-3.666.194,1.941-1.045h5.148l-.631.607a.568.568,0,0,0-.243.388c-.025.219-.048.924-.048,1.166Z" transform="translate(-288.516 -250.053)"/>
      <path class="cls-8" d="M403.446,288.175c-.8-.073-.969-.218-.969-1.166V273.268c0-.052.008-.106.013-.157.1-.849.34-.995,1.094-1.433h-3.473l-1.822.874h1.856v14.991c0,.485-.1.558-.655,1.286h4.3l.9-.533C404.273,288.247,403.859,288.223,403.446,288.175Z" transform="translate(-288.516 -250.053)"/>
      <path class="cls-8" d="M413.325,288.4c-.264.145-.529.315-.794.434a5.618,5.618,0,0,1-2.341.458,5.152,5.152,0,0,1-3.207-.941,6.241,6.241,0,0,1-2.458-5.088,5.465,5.465,0,0,1,5.521-5.569,4.687,4.687,0,0,1,2.485.676,3.991,3.991,0,0,1,1.686,2.386l-5.665,2.292-1.857.145c.6,3.062,2.675,4.845,4.967,4.845a6.23,6.23,0,0,0,2.941-.842Zm-2.265-7.186c.457-.168.7-.313.7-.651a2.392,2.392,0,0,0-2.387-2.074c-.965,0-2.773.748-2.773,3.351,0,.41.048.844.073,1.279Z" transform="translate(-288.516 -250.053)"/>
      <g>
        <path class="cls-8" d="M415.653,277.858v1.591h-.193v-1.591h-.526v-.165h1.246v.165Z" transform="translate(-288.516 -250.053)"/>
        <path class="cls-8" d="M417.822,279.449v-1.606h-.009l-.49,1.606h-.151l-.494-1.606h-.006v1.606H416.5v-1.756h.3l.447,1.419h.006l.44-1.419H418v1.756Z" transform="translate(-288.516 -250.053)"/>
      </g>
    </g>
    <g>
      <path class="cls-8" d="M347.812,267.491h-1.206a7.988,7.988,0,0,0-.343-1.41H344.52a7.274,7.274,0,0,0-.354,1.41h-1.135q0-.147.88-2.413a18.935,18.935,0,0,0,.88-2.5h1.425a20.787,20.787,0,0,0,.8,2.46A21.569,21.569,0,0,1,347.812,267.491Zm-1.742-2.13a21.254,21.254,0,0,1-.645-2.1h-.06q0,.147-.667,2.1Z" transform="translate(-288.516 -250.053)"/>
      <path class="cls-8" d="M352.673,267.491h-.931a9.206,9.206,0,0,0-1.037-1.632,8.992,8.992,0,0,1-1.237-2.13h-.06a13.3,13.3,0,0,1,.094,1.493q0,.931.053,2.27h-.927q.057-1.169.057-2.567,0-1.376-.057-2.341h1.12a7.09,7.09,0,0,0,.931,1.595,9.385,9.385,0,0,1,1.139,2.009h.057a14.242,14.242,0,0,1-.09-1.508q0-1.022-.053-2.1h.943q-.053.935-.053,2.341T352.673,267.491Z" transform="translate(-288.516 -250.053)"/>
      <path class="cls-8" d="M358.138,264.867a2.782,2.782,0,0,1-.686,1.87,2.4,2.4,0,0,1-1.923.8q-.558,0-1.538-.045.049-1.139.049-2.567,0-1.372-.049-2.341h.66q.162,0,.483-.011t.418-.011a2.541,2.541,0,0,1,1.974.679A2.347,2.347,0,0,1,358.138,264.867Zm-1.029.162a1.818,1.818,0,0,0-.422-1.22,1.6,1.6,0,0,0-1.289-.5,3.962,3.962,0,0,0-.445.034q.037.754.038,1.576,0,.9.038,1.787a2.5,2.5,0,0,0,.49.049,1.424,1.424,0,0,0,1.2-.5A1.942,1.942,0,0,0,357.108,265.03Z" transform="translate(-288.516 -250.053)"/>
      <path class="cls-8" d="M363.176,267.491H362.06a7.416,7.416,0,0,0-.671-1.648.879.879,0,0,0-.754-.313q-.219,0-.418,0,0,.969.034,1.957H359.2q.049-1.139.049-2.567,0-1.372-.049-2.341h.652q.113,0,.473-.011t.665-.011q1.73,0,1.73,1.184a1.328,1.328,0,0,1-.988,1.308v.057a1.177,1.177,0,0,1,.667.594A13.114,13.114,0,0,1,363.176,267.491Zm-1.414-3.468q0-.75-.965-.75a3.3,3.3,0,0,0-.626.053q.041.585.041,1.523.207.008.351.008Q361.762,264.856,361.762,264.023Z" transform="translate(-288.516 -250.053)"/>
      <path class="cls-8" d="M368.58,264.947a2.707,2.707,0,0,1-.709,1.919,2.3,2.3,0,0,1-1.753.762,2.215,2.215,0,0,1-1.666-.7,2.462,2.462,0,0,1-.671-1.777,2.706,2.706,0,0,1,.709-1.919,2.3,2.3,0,0,1,1.753-.762,2.219,2.219,0,0,1,1.666.7A2.462,2.462,0,0,1,368.58,264.947Zm-1.041.109a1.946,1.946,0,0,0-.4-1.278,1.242,1.242,0,0,0-1-.49,1.15,1.15,0,0,0-.935.494,1.971,1.971,0,0,0-.385,1.248,1.941,1.941,0,0,0,.405,1.276,1.242,1.242,0,0,0,.993.492,1.148,1.148,0,0,0,.935-.5A1.972,1.972,0,0,0,367.54,265.056Z" transform="translate(-288.516 -250.053)"/>
      <path class="cls-8" d="M370.712,267.491h-1.067q.049-1.169.049-2.567,0-1.376-.049-2.341h1.067q-.049.95-.049,2.341Q370.663,266.345,370.712,267.491Z" transform="translate(-288.516 -250.053)"/>
      <path class="cls-8" d="M376.176,264.867a2.782,2.782,0,0,1-.686,1.87,2.4,2.4,0,0,1-1.923.8q-.558,0-1.538-.045.049-1.139.049-2.567,0-1.372-.049-2.341h.66q.162,0,.483-.011t.418-.011a2.541,2.541,0,0,1,1.974.679A2.347,2.347,0,0,1,376.176,264.867Zm-1.029.162a1.818,1.818,0,0,0-.422-1.22,1.6,1.6,0,0,0-1.289-.5,3.963,3.963,0,0,0-.445.034q.038.754.038,1.576,0,.9.038,1.787a2.5,2.5,0,0,0,.49.049,1.424,1.424,0,0,0,1.2-.5A1.942,1.942,0,0,0,375.147,265.03Z" transform="translate(-288.516 -250.053)"/>
      <path class="cls-8" d="M383.426,267.491h-1.206a7.969,7.969,0,0,0-.343-1.41h-1.742a7.288,7.288,0,0,0-.354,1.41h-1.134q0-.147.88-2.413a18.918,18.918,0,0,0,.88-2.5h1.425a20.811,20.811,0,0,0,.8,2.46A21.594,21.594,0,0,1,383.426,267.491Zm-1.742-2.13a21.322,21.322,0,0,1-.645-2.1h-.06q0,.147-.667,2.1Z" transform="translate(-288.516 -250.053)"/>
      <path class="cls-8" d="M387.824,263.868a1.469,1.469,0,0,1-.669,1.331,2.976,2.976,0,0,1-1.642.43c-.118,0-.2,0-.253-.008q0,.709.041,1.87h-1.059q.049-1.089.049-2.567,0-1.357-.049-2.341h.656q.139,0,.535-.011t.686-.011a2.157,2.157,0,0,1,1.21.324A1.1,1.1,0,0,1,387.824,263.868Zm-.973.207q0-.807-1.071-.807a3.033,3.033,0,0,0-.565.057q.042.713.041,1.614c.063.005.136.008.219.008Q386.851,264.947,386.851,264.076Z" transform="translate(-288.516 -250.053)"/>
      <path class="cls-8" d="M392.345,263.868a1.47,1.47,0,0,1-.669,1.331,2.978,2.978,0,0,1-1.642.43c-.118,0-.2,0-.253-.008q0,.709.041,1.87h-1.059q.049-1.089.049-2.567,0-1.357-.049-2.341h.656q.139,0,.535-.011t.686-.011a2.157,2.157,0,0,1,1.21.324A1.1,1.1,0,0,1,392.345,263.868Zm-.973.207q0-.807-1.071-.807a3.033,3.033,0,0,0-.566.057q.042.713.041,1.614c.063.005.136.008.219.008Q391.373,264.947,391.373,264.076Z" transform="translate(-288.516 -250.053)"/>
      <path class="cls-8" d="M399.738,264.947a2.706,2.706,0,0,1-.709,1.919,2.3,2.3,0,0,1-1.753.762,2.215,2.215,0,0,1-1.666-.7,2.463,2.463,0,0,1-.671-1.777,2.706,2.706,0,0,1,.709-1.919,2.3,2.3,0,0,1,1.753-.762,2.218,2.218,0,0,1,1.666.7A2.462,2.462,0,0,1,399.738,264.947Zm-1.041.109a1.945,1.945,0,0,0-.4-1.278,1.242,1.242,0,0,0-1-.49,1.15,1.15,0,0,0-.935.494,1.971,1.971,0,0,0-.385,1.248,1.94,1.94,0,0,0,.405,1.276,1.241,1.241,0,0,0,.993.492,1.148,1.148,0,0,0,.935-.5A1.972,1.972,0,0,0,398.7,265.056Z" transform="translate(-288.516 -250.053)"/>
      <path class="cls-8" d="M404.848,267.491h-.931a9.191,9.191,0,0,0-1.037-1.632,8.99,8.99,0,0,1-1.237-2.13h-.06a13.305,13.305,0,0,1,.094,1.493q0,.931.053,2.27H400.8q.057-1.169.057-2.567,0-1.376-.057-2.341h1.12a7.1,7.1,0,0,0,.931,1.595,9.378,9.378,0,0,1,1.139,2.009h.057a14.232,14.232,0,0,1-.09-1.508q0-1.022-.053-2.1h.943q-.053.935-.053,2.341T404.848,267.491Z" transform="translate(-288.516 -250.053)"/>
    </g>
  </g>
  <g>
    <path class="cls-2" d="M207.962,0H374.875a8.094,8.094,0,0,1,8.094,8.094V51.8a8.094,8.094,0,0,1-8.094,8.094H207.964A8.094,8.094,0,0,1,199.87,51.8V8.092A8.092,8.092,0,0,1,207.962,0Z"/>
    <g>
      <path class="cls-9" d="M536.132,289.643a29.651,29.651,0,0,1-2.681,5.006c-1.742,2.651-4.2,5.953-7.236,5.98-2.7.025-3.4-1.759-7.064-1.739s-4.433,1.77-7.136,1.745c-3.041-.028-5.367-3.009-7.108-5.66-4.87-7.413-5.378-16.112-2.376-20.736a10.775,10.775,0,0,1,8.667-5.211c3.223,0,5.249,1.768,7.914,1.768,2.585,0,4.161-1.771,7.887-1.771a10.518,10.518,0,0,1,7.928,4.186C527.96,277.03,529.092,286.982,536.132,289.643Z" transform="translate(-288.516 -250.053)"/>
      <path class="cls-9" d="M524.173,266.065a9.047,9.047,0,0,0,2.009-6.7,9.773,9.773,0,0,0-6.31,3.394,8.4,8.4,0,0,0-2.062,6.536A8.25,8.25,0,0,0,524.173,266.065Z" transform="translate(-288.516 -250.053)"/>
    </g>
    <g>
      <g>
        <path class="cls-9" d="M550.967,274.127l-6.975,20.533h3.194l2.082-6.3h6.754l2.141,6.3h3.283l-7.005-20.533Zm1.655,3.376c.235.916.49,1.868.816,2.9l1.88,5.444h-5.35l1.854-5.48C552.1,279.476,552.372,278.516,552.622,277.5Z" transform="translate(-288.516 -250.053)"/>
        <path class="cls-9" d="M570.473,279.45a5.812,5.812,0,0,0-4.939,2.369l-.124-2.042h-2.842l.017.261c.084,1.272.119,2.673.119,4.683v15.826h3.107v-7.386a5.455,5.455,0,0,0,4.246,1.825,6.4,6.4,0,0,0,4.707-2,8.488,8.488,0,0,0,2.079-5.975,8.264,8.264,0,0,0-1.8-5.456A5.91,5.91,0,0,0,570.473,279.45Zm-.774,2.572c2.769,0,4.009,2.565,4.009,5.107,0,3.279-1.581,5.315-4.127,5.315a3.766,3.766,0,0,1-3.66-2.883,3.962,3.962,0,0,1-.11-1.006v-2.5a4.685,4.685,0,0,1,.1-.767c.015-.085.032-.17.045-.252A3.934,3.934,0,0,1,569.7,282.022Z" transform="translate(-288.516 -250.053)"/>
        <path class="cls-9" d="M586.47,279.45a5.815,5.815,0,0,0-4.939,2.369l-.124-2.042h-2.841l.016.261c.084,1.274.12,2.673.12,4.683v15.826h3.107v-7.386a5.452,5.452,0,0,0,4.245,1.825,6.413,6.413,0,0,0,4.71-2,8.5,8.5,0,0,0,2.077-5.975,8.264,8.264,0,0,0-1.806-5.456A5.908,5.908,0,0,0,586.47,279.45Zm-.773,2.572c2.768,0,4.008,2.565,4.008,5.107,0,3.279-1.582,5.315-4.126,5.315a3.766,3.766,0,0,1-3.66-2.883,3.965,3.965,0,0,1-.11-1.006v-2.5a4.6,4.6,0,0,1,.1-.769c.015-.084.031-.167.045-.25A3.931,3.931,0,0,1,585.7,282.022Z" transform="translate(-288.516 -250.053)"/>
        <path class="cls-9" d="M606.511,282.827c-2.9-1.123-3.828-2.006-3.828-3.637,0-1.374,1.091-2.759,3.531-2.759a7.06,7.06,0,0,1,3.647.915l.263.162.877-2.592-.173-.1A9,9,0,0,0,606.3,273.8c-3.962,0-6.729,2.339-6.729,5.686,0,2.7,1.733,4.587,5.453,5.939,2.636.985,3.618,1.995,3.618,3.725,0,1.959-1.514,3.174-3.949,3.174a8.5,8.5,0,0,1-4.477-1.269l-.269-.173-.834,2.652.153.1a10.639,10.639,0,0,0,5.25,1.35c5.339,0,7.232-3.256,7.232-6.043C611.751,286.069,610.233,284.3,606.511,282.827Z" transform="translate(-288.516 -250.053)"/>
        <path class="cls-9" d="M617.343,276.239l-3.047.957v2.581h-2.231v2.483H614.3v7.605a5.814,5.814,0,0,0,1.075,3.941,3.983,3.983,0,0,0,3.006,1.18,7.314,7.314,0,0,0,2.4-.371l.174-.062-.149-2.487-.3.091a4.682,4.682,0,0,1-1.445.167c-1.2,0-1.718-.762-1.718-2.55v-7.516h3.747v-2.483h-3.747Z" transform="translate(-288.516 -250.053)"/>
        <path class="cls-9" d="M628.789,279.45c-4.347,0-7.382,3.244-7.382,7.887,0,4.5,2.937,7.65,7.144,7.65h.029c3.556,0,7.382-2.477,7.382-7.917a7.85,7.85,0,0,0-1.98-5.495A6.913,6.913,0,0,0,628.789,279.45Zm-.09,2.453c2.795,0,4.067,2.724,4.067,5.257,0,3.114-1.736,5.374-4.126,5.374h-.03c-2.356,0-4.066-2.223-4.066-5.285C624.543,284.588,625.829,281.9,628.7,281.9Z" transform="translate(-288.516 -250.053)"/>
        <path class="cls-9" d="M645.476,279.594l-.186-.047a2.988,2.988,0,0,0-.773-.1,4.431,4.431,0,0,0-3.895,2.5l-.091-2.174h-2.788l.018.261c.083,1.23.117,2.61.117,4.473l-.029,10.148h3.107v-7.917a8,8,0,0,1,.086-1.2,3.433,3.433,0,0,1,3.268-3.131,7.929,7.929,0,0,1,.834.052l.332.034Z" transform="translate(-288.516 -250.053)"/>
        <path class="cls-9" d="M652.461,279.42c-4.135,0-7.024,3.3-7.024,8.036,0,4.556,2.873,7.5,7.321,7.5a11.915,11.915,0,0,0,4.918-.944l.187-.084-.6-2.315-.259.1a9.622,9.622,0,0,1-3.892.7,4.319,4.319,0,0,1-4.653-4.5l10.027.03.04-.2a6.918,6.918,0,0,0,.093-1.3C658.623,283.2,657.009,279.42,652.461,279.42Zm-.207,2.363a3.066,3.066,0,0,1,2.281.87,4.421,4.421,0,0,1,1.07,2.892h-7.085C648.808,283.752,649.93,281.784,652.254,281.784Z" transform="translate(-288.516 -250.053)"/>
      </g>
      <g>
        <path class="cls-9" d="M543.992,260.1a22.635,22.635,0,0,1,2.98-.2,6.65,6.65,0,0,1,4.374,1.2,4.252,4.252,0,0,1,1.538,3.5,4.919,4.919,0,0,1-1.554,3.777,7.209,7.209,0,0,1-4.79,1.4,21.613,21.613,0,0,1-2.548-.116Zm1.41,8.608a10.058,10.058,0,0,0,1.41.058c2.98.014,4.6-1.5,4.6-4.123.016-2.321-1.426-3.749-4.373-3.749a8.853,8.853,0,0,0-1.634.13Z" transform="translate(-288.516 -250.053)"/>
        <path class="cls-9" d="M557.88,269.848a3.5,3.5,0,0,1-3.717-3.59,3.6,3.6,0,0,1,3.844-3.706,3.475,3.475,0,0,1,3.733,3.576,3.612,3.612,0,0,1-3.844,3.72Zm.048-.952a2.483,2.483,0,0,0,2.355-2.725,2.371,2.371,0,1,0-2.371,2.725Z" transform="translate(-288.516 -250.053)"/>
        <path class="cls-9" d="M563.971,262.711l1.041,3.533c.208.778.417,1.514.561,2.235h.048c.176-.707.433-1.456.689-2.22l1.266-3.547h1.186l1.2,3.489c.288.822.512,1.572.689,2.279h.048a19.3,19.3,0,0,1,.593-2.264l1.1-3.5h1.394l-2.5,6.978h-1.282l-1.185-3.33a22.9,22.9,0,0,1-.69-2.307H568.1a19.209,19.209,0,0,1-.705,2.321l-1.249,3.316h-1.281l-2.34-6.978Z" transform="translate(-288.516 -250.053)"/>
        <path class="cls-9" d="M575.2,264.6c0-.736-.016-1.312-.064-1.889h1.25l.08,1.14h.032a2.937,2.937,0,0,1,2.563-1.3,2.654,2.654,0,0,1,2.739,2.97v4.167h-1.409v-4.023c0-1.125-.465-2.076-1.795-2.076a2.011,2.011,0,0,0-1.89,1.3,1.713,1.713,0,0,0-.1.591v4.21H575.2Z" transform="translate(-288.516 -250.053)"/>
        <path class="cls-9" d="M584.094,259.453h1.41v10.236h-1.41Z" transform="translate(-288.516 -250.053)"/>
        <path class="cls-9" d="M591,269.848a3.5,3.5,0,0,1-3.717-3.59,3.6,3.6,0,0,1,3.845-3.706,3.475,3.475,0,0,1,3.732,3.576,3.613,3.613,0,0,1-3.845,3.72Zm.047-.952a2.483,2.483,0,0,0,2.356-2.725,2.371,2.371,0,1,0-2.371,2.725Z" transform="translate(-288.516 -250.053)"/>
        <path class="cls-9" d="M602.1,268.017a10.538,10.538,0,0,0,.112,1.672h-1.266l-.128-.879h-.047a2.981,2.981,0,0,1-2.371,1.038,2.114,2.114,0,0,1-2.371-2c0-1.687,1.666-2.61,4.661-2.6V265.1c0-.576-.175-1.629-1.762-1.615a4.044,4.044,0,0,0-2.034.519l-.321-.85a5.459,5.459,0,0,1,2.564-.606c2.387,0,2.963,1.456,2.963,2.855Zm-1.377-1.889c-1.538-.029-3.284.216-3.284,1.571a1.179,1.179,0,0,0,1.314,1.211,1.955,1.955,0,0,0,1.906-1.168,1.161,1.161,0,0,0,.065-.4Z" transform="translate(-288.516 -250.053)"/>
        <path class="cls-9" d="M611.058,259.453v8.434c0,.62.017,1.326.064,1.8h-1.265l-.064-1.211h-.032a2.9,2.9,0,0,1-2.627,1.37A3.327,3.327,0,0,1,603.8,266.3a3.479,3.479,0,0,1,3.476-3.748,2.667,2.667,0,0,1,2.34,1.053h.032v-4.152Zm-1.409,6.1a2.1,2.1,0,0,0-.064-.548,2.038,2.038,0,0,0-2.034-1.456,2.388,2.388,0,0,0-2.323,2.682,2.315,2.315,0,0,0,2.291,2.595,2.1,2.1,0,0,0,2.066-1.514,1.968,1.968,0,0,0,.064-.548Z" transform="translate(-288.516 -250.053)"/>
        <path class="cls-9" d="M619.949,269.848a3.5,3.5,0,0,1-3.717-3.59,3.6,3.6,0,0,1,3.845-3.706,3.475,3.475,0,0,1,3.733,3.576,3.613,3.613,0,0,1-3.844,3.72ZM620,268.9a2.483,2.483,0,0,0,2.355-2.725,2.37,2.37,0,1,0-2.371,2.725Z" transform="translate(-288.516 -250.053)"/>
        <path class="cls-9" d="M625.59,264.6c0-.736-.016-1.312-.064-1.889h1.25l.081,1.14h.032a2.936,2.936,0,0,1,2.563-1.3,2.654,2.654,0,0,1,2.74,2.97v4.167h-1.41v-4.023c0-1.125-.464-2.076-1.795-2.076a2.013,2.013,0,0,0-1.891,1.3,1.721,1.721,0,0,0-.1.591v4.21H625.59Z" transform="translate(-288.516 -250.053)"/>
        <path class="cls-9" d="M639.577,261.039v1.672h2.018v.966h-2.018v3.764c0,.865.273,1.355,1.058,1.355a2.917,2.917,0,0,0,.817-.086l.064.966a4.236,4.236,0,0,1-1.25.173,2.135,2.135,0,0,1-1.522-.533,2.534,2.534,0,0,1-.544-1.832v-3.806H637v-.966h1.2v-1.283Z" transform="translate(-288.516 -250.053)"/>
        <path class="cls-9" d="M643.181,259.453h1.409v4.354h.033a2.393,2.393,0,0,1,1.01-.894,2.977,2.977,0,0,1,1.442-.361,2.653,2.653,0,0,1,2.707,2.985v4.152h-1.409v-4.008c0-1.139-.465-2.076-1.795-2.076a2.026,2.026,0,0,0-1.891,1.269,1.394,1.394,0,0,0-.1.606v4.21h-1.409Z" transform="translate(-288.516 -250.053)"/>
        <path class="cls-9" d="M652.874,266.416a2.363,2.363,0,0,0,2.644,2.422,5.877,5.877,0,0,0,2.148-.347l.256.894a6.932,6.932,0,0,1-2.6.447c-2.372,0-3.813-1.428-3.813-3.518a3.553,3.553,0,0,1,3.652-3.778,3.054,3.054,0,0,1,3.188,3.288,2.938,2.938,0,0,1-.047.605Zm4.118-.908a1.872,1.872,0,0,0-1.939-2.062,2.195,2.195,0,0,0-2.163,2.062Z" transform="translate(-288.516 -250.053)"/>
      </g>
    </g>
  </g>
</svg>
