<svg id="Layer_1" data-name="Layer 1" xmlns="http://www.w3.org/2000/svg" viewBox="0 0 134 32.67">
  <defs>
    <style>
      .cls-1 {
        fill: #fff;
      }
    </style>
  </defs>
  <title>logo monual</title>
  <g>
    <g>
      <path class="cls-1" d="M442.348,296.062h-6.324V277.179l-6.188,12.286h-4.278l-6.233-12.286v18.883H413v-32.4h6.209l8.431,17.518,8.385-17.518h6.324Z" transform="translate(-413 -263.665)"/>
      <path class="cls-1" d="M465.78,284.186a21.385,21.385,0,0,1-.546,5.415,8.5,8.5,0,0,1-2.139,3.822,10.726,10.726,0,0,1-14.7,0,8.5,8.5,0,0,1-2.139-3.822,21.385,21.385,0,0,1-.546-5.415q0-6.369,2.729-9.236a10.736,10.736,0,0,1,14.606,0Q465.78,277.816,465.78,284.186Zm-5.96,0q0-4.367-1.35-5.732a3.69,3.69,0,0,0-2.746-1.047,3.631,3.631,0,0,0-2.7,1.047q-1.348,1.365-1.35,5.732,0,4.414,1.35,5.779a3.631,3.631,0,0,0,2.7,1.046,3.689,3.689,0,0,0,2.746-1.046Q459.821,288.6,459.82,284.186Z" transform="translate(-413 -263.665)"/>
      <path class="cls-1" d="M488.394,296.062h-5.96V281.729a4.293,4.293,0,0,0-1.266-3.367,3.729,3.729,0,0,0-2.623-.956,3.792,3.792,0,0,0-2.67.956,4.293,4.293,0,0,0-1.266,3.367v14.333h-5.915V272.356h5.778v2.183a7.783,7.783,0,0,1,5.915-2.456,7.571,7.571,0,0,1,5.6,2.092,9.111,9.111,0,0,1,2.41,6.734Z" transform="translate(-413 -263.665)"/>
      <path class="cls-1" d="M511.51,296.062h-5.778v-2.184a7.784,7.784,0,0,1-5.915,2.457,7.562,7.562,0,0,1-5.6-2.093,9.1,9.1,0,0,1-2.412-6.734V272.356h5.962v14.333a4.306,4.306,0,0,0,1.259,3.367,3.7,3.7,0,0,0,2.609.955,3.756,3.756,0,0,0,2.653-.955,4.307,4.307,0,0,0,1.261-3.367V272.356h5.96Z" transform="translate(-413 -263.665)"/>
      <path class="cls-1" d="M533.35,296.062h-5.778v-2.048a7.884,7.884,0,0,1-5.824,2.275q-4,0-6.006-2.048a7.349,7.349,0,0,1-2-5.369,6.467,6.467,0,0,1,2.063-4.937A8.474,8.474,0,0,1,521.81,282h5.579v-1.184q0-3.731-4.4-3.731a5.669,5.669,0,0,0-4.534,1.957l-3.763-3.686a9.246,9.246,0,0,1,3.686-2.594,14.213,14.213,0,0,1,4.87-.682q10.1,0,10.1,8.372Zm-5.96-8.737v-1.274h-4.66q-3.3,0-3.3,2.685,0,2.729,3.394,2.73,3.03,0,4.025-1.5A4.912,4.912,0,0,0,527.39,287.326Z" transform="translate(-413 -263.665)"/>
      <path class="cls-1" d="M547,296.062h-3.366a6.623,6.623,0,0,1-5.279-2.139,6.781,6.781,0,0,1-1.639-4.641V263.665h5.962v25.254a1.86,1.86,0,0,0,2.07,2.138H547Z" transform="translate(-413 -263.665)"/>
    </g>
    <rect class="cls-1" x="453.567" y="255.813" width="4.36" height="20.065" transform="translate(-223.098 457.927) rotate(-90)"/>
  </g>
</svg>
